<svg width="109" height="103" viewBox="0 0 109 103" fill="none" xmlns="http://www.w3.org/2000/svg">
<mask id="mask0_860_60322" style="mask-type:luminance" maskUnits="userSpaceOnUse" x="0" y="24" width="78" height="79">
<path d="M1.28861 97.0631C-0.0232951 100.478 3.3379 103.829 6.7489 102.507L77.8636 72.3214L28.9146 24.6436L1.28861 97.0631Z" fill="white"/>
</mask>
<g mask="url(#mask0_860_60322)">
<path d="M1.16556 96.94C-0.146342 100.355 3.21485 103.706 6.62586 102.384L77.7403 72.1984L28.7913 24.5205L1.16556 96.94Z" fill="#197CEC"/>
</g>
<mask id="mask1_860_60322" style="mask-type:luminance" maskUnits="userSpaceOnUse" x="28" y="21" width="52" height="53">
<path d="M30.0864 22.5043C25.6436 26.8756 32.8926 41.447 46.2776 55.0502C59.6626 68.6537 74.115 76.1379 78.5574 71.7666C83.0002 67.3955 75.7509 52.8239 62.366 39.2206C51.5689 28.2476 40.0789 21.2561 33.7069 21.2568C32.1797 21.2571 30.9454 21.659 30.0864 22.5043Z" fill="white"/>
</mask>
<g mask="url(#mask1_860_60322)">
<path d="M29.9663 22.3832C25.5235 26.7545 32.7725 41.3259 46.1575 54.9291C59.5424 68.5326 73.9949 76.0168 78.4373 71.6455C82.8801 67.2744 75.6308 52.7028 62.2458 39.0996C51.4488 28.1265 39.9588 21.135 33.5868 21.1357C32.0596 21.136 30.8253 21.5379 29.9663 22.3832Z" fill="#112C60" fill-opacity="0.76"/>
</g>
<mask id="mask2_860_60322" style="mask-type:luminance" maskUnits="userSpaceOnUse" x="22" y="33" width="47" height="47">
<path d="M23.3184 39.3161L22.8111 40.6446C22.8111 40.6468 22.8111 40.649 22.8089 40.6531C21.8725 45.5137 27.5259 55.6007 36.8787 65.1061C45.951 74.3263 55.6285 80.0755 60.6503 79.6269L63.0458 78.61L68.405 76.3366C67.2052 76.5258 65.7375 76.3605 64.0671 75.8792C58.0892 74.1632 49.5268 68.3924 41.3975 60.1305C33.5165 52.1206 27.983 43.7413 26.1757 37.7656C25.6768 36.1214 25.4634 34.6581 25.5613 33.4365L23.3184 39.3161Z" fill="white"/>
</mask>
<g mask="url(#mask2_860_60322)">
<path d="M23.1944 39.1969L22.687 40.5254C22.687 40.5276 22.687 40.5298 22.6848 40.534C21.7485 45.3946 27.4019 55.4816 36.7547 64.987C45.8269 74.2072 55.5045 79.9563 60.5262 79.5078L62.9218 78.4911L68.281 76.2174C67.0811 76.4066 65.6137 76.2413 63.9433 75.7601C57.9654 74.0441 49.403 68.2735 41.2737 60.0116C33.3928 52.0017 27.859 43.6224 26.0516 37.6467C25.5528 36.0025 25.3394 34.5389 25.4373 33.3174L23.1944 39.1969Z" fill="#0D2147" fill-opacity="0.66"/>
</g>
<mask id="mask3_860_60322" style="mask-type:luminance" maskUnits="userSpaceOnUse" x="16" y="51" width="35" height="36">
<path d="M16.3625 57.5444L16.2011 57.9665C16.2011 57.9687 16.2011 57.9709 16.1989 57.9731C15.2191 61.3902 19.3741 68.9552 26.3753 76.0739C33.505 83.319 41.1488 87.62 44.489 86.4856C44.4959 86.4834 44.5 86.4812 44.5044 86.4788L44.8484 86.3352L50.9502 83.7437C49.7938 84.2032 48.1435 84.042 46.1704 83.352C41.8127 81.8274 35.8875 77.7181 30.2426 71.9822C24.7181 66.368 20.7548 60.508 19.2261 56.1528C18.5488 54.2169 18.3483 52.5792 18.7099 51.3945L16.3625 57.5444Z" fill="white"/>
</mask>
<g mask="url(#mask3_860_60322)">
<path d="M16.2404 57.4242L16.0791 57.8464C16.0791 57.8486 16.0791 57.8508 16.0769 57.853C15.097 61.2701 19.252 68.8351 26.2532 75.9538C33.3829 83.1989 41.027 87.4999 44.3672 86.3655C44.374 86.3633 44.3779 86.3611 44.3823 86.3587L44.7264 86.2151L50.8283 83.6235C49.672 84.0831 48.0214 83.9219 46.0483 83.2319C41.6906 81.7073 35.7655 77.598 30.1206 71.862C24.5961 66.2479 20.633 60.3879 19.1043 56.0327C18.427 54.0967 18.2265 52.4591 18.5881 51.2744L16.2404 57.4242Z" fill="#0D2147" fill-opacity="0.66"/>
</g>
<mask id="mask4_860_60322" style="mask-type:luminance" maskUnits="userSpaceOnUse" x="9" y="68" width="26" height="26">
<path d="M10.2088 73.6817V73.6842L9.84303 74.6423C9.54905 77.0549 12.2581 81.8069 16.6699 86.2907C21.3347 91.0315 26.3279 93.8733 28.5972 93.2331L29.0411 93.0458L34.4833 90.7353C33.2876 91.0051 31.5152 90.5282 29.4462 89.4505C26.7264 88.0348 23.4927 85.5807 20.383 82.4187C17.3406 79.3266 14.9756 76.1275 13.5907 73.4205C12.4976 71.2908 12.012 69.4659 12.2842 68.2422L10.2088 73.6817Z" fill="white"/>
</mask>
<g mask="url(#mask4_860_60322)">
<path d="M10.0857 73.5567V73.5592L9.71998 74.5173C9.426 76.9299 12.135 81.6819 16.5469 86.1657C21.2117 90.9065 26.2049 93.7483 28.4742 93.1081L28.9181 92.9208L34.3603 90.6103C33.1646 90.8801 31.3922 90.4032 29.3231 89.3255C26.6034 87.9098 23.3696 85.4557 20.2599 82.2937C17.2176 79.2016 14.8526 76.0025 13.4677 73.2955C12.3746 71.1658 11.8889 69.3409 12.1612 68.1172L10.0857 73.5567Z" fill="#0D2147" fill-opacity="0.66"/>
</g>
<mask id="mask5_860_60322" style="mask-type:luminance" maskUnits="userSpaceOnUse" x="4" y="83" width="16" height="17">
<path d="M4.76555 87.9448C4.76555 87.9448 4.76555 87.947 4.76335 87.947L4.55654 88.4934C4.39539 89.8569 5.92192 92.5354 8.40876 95.0613C10.9349 97.6289 13.6329 99.2099 14.979 99.0116H14.9812L15.495 98.7919L19.8873 96.9277C18.7158 97.1584 16.6689 96.2526 14.4299 94.5605C13.4349 93.8136 12.4026 92.9097 11.3922 91.882C10.4341 90.9085 9.58466 89.9155 8.87487 88.9596C7.24823 86.7667 6.33798 84.7523 6.45103 83.5264L4.76555 87.9448Z" fill="white"/>
</mask>
<g mask="url(#mask5_860_60322)">
<path d="M4.64641 87.82C4.64641 87.82 4.64641 87.8222 4.64421 87.8222L4.4374 88.3687C4.27625 89.7321 5.80278 92.4106 8.28961 94.9365C10.8158 97.5042 13.5138 99.0852 14.8599 98.8869H14.8621L15.3758 98.6671L19.7681 96.8029C18.5966 97.0337 16.5498 96.1278 14.3108 94.4357C13.3158 93.6888 12.2834 92.7849 11.2731 91.7572C10.315 90.7837 9.46552 89.7905 8.75573 88.8346C7.12909 86.6417 6.21884 84.6273 6.33189 83.4014L4.64641 87.82Z" fill="#0D2147" fill-opacity="0.66"/>
</g>
<mask id="mask6_860_60322" style="mask-type:luminance" maskUnits="userSpaceOnUse" x="102" y="54" width="7" height="7">
<path d="M102.45 57.5445C102.45 59.1455 103.748 60.4432 105.349 60.4432C106.95 60.4432 108.248 59.1455 108.248 57.5445C108.248 55.9433 106.95 54.6455 105.349 54.6455C103.748 54.6455 102.45 55.9433 102.45 57.5445Z" fill="white"/>
</mask>
<g mask="url(#mask6_860_60322)">
<path d="M102.329 57.4256C102.329 59.0266 103.627 60.3243 105.228 60.3243C106.829 60.3243 108.127 59.0266 108.127 57.4256C108.127 55.8244 106.829 54.5264 105.228 54.5264C103.627 54.5264 102.329 55.8244 102.329 57.4256Z" fill="#0C6FDF"/>
</g>
<mask id="mask7_860_60322" style="mask-type:luminance" maskUnits="userSpaceOnUse" x="98" y="33" width="9" height="10">
<path d="M98.3633 37.955C98.3633 40.2128 100.194 42.0431 102.451 42.0431C104.709 42.0431 106.539 40.2128 106.539 37.955C106.539 35.6972 104.709 33.8672 102.451 33.8672C100.194 33.8672 98.3633 35.6972 98.3633 37.955Z" fill="white"/>
</mask>
<g mask="url(#mask7_860_60322)">
<path d="M98.2422 37.833C98.2422 40.0908 100.072 41.9213 102.33 41.9213C104.588 41.9213 106.418 40.0908 106.418 37.833C106.418 35.5751 104.588 33.7451 102.33 33.7451C100.072 33.7451 98.2422 35.5751 98.2422 37.833Z" fill="#004AD9" fill-opacity="0.9"/>
</g>
<mask id="mask8_860_60322" style="mask-type:luminance" maskUnits="userSpaceOnUse" x="80" y="82" width="9" height="9">
<path d="M80.335 86.8312C80.335 89.0888 82.1655 90.9193 84.423 90.9193C86.6808 90.9193 88.5111 89.0888 88.5111 86.8312C88.5111 84.5734 86.6808 82.7432 84.423 82.7432C82.1655 82.7432 80.335 84.5734 80.335 86.8312Z" fill="white"/>
</mask>
<g mask="url(#mask8_860_60322)">
<path d="M80.2129 86.7092C80.2129 88.9667 82.0434 90.7972 84.301 90.7972C86.5588 90.7972 88.389 88.9667 88.389 86.7092C88.389 84.4514 86.5588 82.6211 84.301 82.6211C82.0434 82.6211 80.2129 84.4514 80.2129 86.7092Z" fill="#0A3EA4"/>
</g>
<mask id="mask9_860_60322" style="mask-type:luminance" maskUnits="userSpaceOnUse" x="57" y="72" width="12" height="13">
<path d="M57.2471 78.3536C57.2471 81.5559 59.8428 84.1516 63.045 84.1516C66.2473 84.1516 68.8428 81.5559 68.8428 78.3536C68.8428 75.1514 66.2473 72.5557 63.045 72.5557C59.8428 72.5557 57.2471 75.1514 57.2471 78.3536Z" fill="white"/>
</mask>
<g mask="url(#mask9_860_60322)">
<path d="M57.124 78.2325C57.124 81.4348 59.7198 84.0305 62.922 84.0305C66.1242 84.0305 68.7195 81.4348 68.7195 78.2325C68.7195 75.0303 66.1242 72.4346 62.922 72.4346C59.7198 72.4346 57.124 75.0303 57.124 78.2325Z" fill="#78B5FA"/>
</g>
<mask id="mask10_860_60322" style="mask-type:luminance" maskUnits="userSpaceOnUse" x="77" y="28" width="13" height="13">
<path d="M77.9863 34.5853C77.9863 37.7873 80.5823 40.3833 83.7845 40.3833C86.9865 40.3833 89.5823 37.7873 89.5823 34.5853C89.5823 31.3831 86.9865 28.7871 83.7845 28.7871C80.5823 28.7871 77.9863 31.3831 77.9863 34.5853Z" fill="white"/>
</mask>
<g mask="url(#mask10_860_60322)">
<path d="M77.8643 34.4635C77.8643 37.6655 80.4602 40.2615 83.6625 40.2615C86.8645 40.2615 89.4602 37.6655 89.4602 34.4635C89.4602 31.2613 86.8645 28.665 83.6625 28.665C80.4602 28.665 77.8643 31.2613 77.8643 34.4635Z" fill="#071331"/>
</g>
<mask id="mask11_860_60322" style="mask-type:luminance" maskUnits="userSpaceOnUse" x="80" y="4" width="7" height="7">
<path d="M80.8857 7.18317C80.8857 8.78441 82.1835 10.0822 83.7847 10.0822C85.3857 10.0822 86.6837 8.78441 86.6837 7.18317C86.6837 5.58217 85.3857 4.28418 83.7847 4.28418C82.1835 4.28418 80.8857 5.58217 80.8857 7.18317Z" fill="white"/>
</mask>
<g mask="url(#mask11_860_60322)">
<path d="M80.7637 7.0611C80.7637 8.66234 82.0614 9.96008 83.6627 9.96008C85.2637 9.96008 86.5616 8.66234 86.5616 7.0611C86.5616 5.4601 85.2637 4.16211 83.6627 4.16211C82.0614 4.16211 80.7637 5.4601 80.7637 7.0611Z" fill="#0C6FDF"/>
</g>
<mask id="mask12_860_60322" style="mask-type:luminance" maskUnits="userSpaceOnUse" x="11" y="33" width="10" height="10">
<path d="M11.9707 37.955C11.9707 40.2128 13.801 42.0431 16.0588 42.0431C18.3166 42.0431 20.1469 40.2128 20.1469 37.955C20.1469 35.6972 18.3166 33.8672 16.0588 33.8672C13.801 33.8672 11.9707 35.6972 11.9707 37.955Z" fill="white"/>
</mask>
<g mask="url(#mask12_860_60322)">
<path d="M11.8477 37.833C11.8477 40.0908 13.6779 41.9213 15.9357 41.9213C18.1935 41.9213 20.0238 40.0908 20.0238 37.833C20.0238 35.5751 18.1935 33.7451 15.9357 33.7451C13.6779 33.7451 11.8477 35.5751 11.8477 37.833Z" fill="#F4F4F4"/>
</g>
<mask id="mask13_860_60322" style="mask-type:luminance" maskUnits="userSpaceOnUse" x="11" y="14" width="7" height="7">
<path d="M11.6924 17.6693C11.6924 19.2705 12.9904 20.5682 14.5914 20.5682C16.1924 20.5682 17.4904 19.2705 17.4904 17.6693C17.4904 16.0683 16.1924 14.7705 14.5914 14.7705C12.9904 14.7705 11.6924 16.0683 11.6924 17.6693Z" fill="white"/>
</mask>
<g mask="url(#mask13_860_60322)">
<path d="M11.5693 17.5501C11.5693 19.1514 12.8673 20.4489 14.4683 20.4489C16.0693 20.4489 17.3673 19.1514 17.3673 17.5501C17.3673 15.9491 16.0693 14.6514 14.4683 14.6514C12.8673 14.6514 11.5693 15.9491 11.5693 17.5501Z" fill="#071331"/>
</g>
<mask id="mask14_860_60322" style="mask-type:luminance" maskUnits="userSpaceOnUse" x="34" y="0" width="14" height="36">
<path d="M35.3874 1.38364C34.5176 2.45871 34.6842 4.03578 35.7595 4.9055C43.8966 11.4875 45.1616 23.4621 38.5796 31.5992C37.7099 32.6745 37.8764 34.2514 38.9519 35.1211C39.4154 35.4961 39.9721 35.6785 40.5253 35.6785C41.2554 35.6785 41.9789 35.3609 42.4738 34.749C50.7925 24.4647 49.1935 9.33004 38.9092 1.01129C38.4458 0.636249 37.8891 0.454102 37.336 0.454102C36.606 0.454102 35.882 0.771762 35.3874 1.38364Z" fill="white"/>
</mask>
<g mask="url(#mask14_860_60322)">
<path d="M37.2129 2.90332C46.4382 10.3655 47.8673 23.8936 40.4051 33.1189" stroke="#0030D9" stroke-width="5.00859" stroke-miterlimit="10" stroke-linecap="round"/>
</g>
<mask id="mask15_860_60322" style="mask-type:luminance" maskUnits="userSpaceOnUse" x="49" y="6" width="26" height="42">
<path d="M69.471 8.47699C69.1392 8.87254 67.1541 9.13258 66.1999 9.25784C63.5228 9.60846 59.8562 10.0887 58.7963 13.5303C57.7359 16.9718 60.4962 19.4325 62.5118 21.2291C63.2301 21.8693 64.7249 23.2017 64.7764 23.7147C64.4448 24.1102 62.4595 24.37 61.5055 24.4953C58.8283 24.8462 55.1621 25.3264 54.1017 28.768C53.0415 32.2097 55.8016 34.6702 57.8169 36.467C58.5353 37.1072 60.0303 38.4401 60.0818 38.9531C59.7505 39.3487 57.7647 39.6092 56.8105 39.7342C54.1334 40.0851 50.467 40.5658 49.4068 44.0074C48.9993 45.3293 49.7394 46.7305 51.0613 47.1378C51.3067 47.2133 51.5548 47.2494 51.7989 47.2494C52.8686 47.2494 53.8587 46.5577 54.1903 45.4814C54.5216 45.0858 56.5072 44.8256 57.4614 44.7003C60.1387 44.3494 63.8051 43.8687 64.8655 40.4271C65.9257 36.9854 63.1654 34.5249 61.15 32.7281C60.4317 32.0876 58.9367 30.7552 58.8851 30.242C59.2167 29.8464 61.2023 29.5866 62.1562 29.4616C64.8335 29.1105 68.4997 28.6302 69.5601 25.1887C70.6203 21.7472 67.86 19.2867 65.8444 17.4902C65.126 16.8499 63.6315 15.5173 63.5797 15.0043C63.9113 14.609 65.8966 14.349 66.8506 14.2239C69.5276 13.8731 73.1943 13.3926 74.2544 9.95103C74.6617 8.62935 73.9219 7.22784 72.6 6.82081C72.3543 6.74512 72.1063 6.70898 71.8619 6.70898C70.7922 6.70898 69.8026 7.40095 69.471 8.47699Z" fill="white"/>
</mask>
<g mask="url(#mask15_860_60322)">
<path d="M71.8747 9.1582C70.7012 12.9674 62.3766 10.403 61.2029 14.2122C60.0294 18.0217 68.3538 20.5862 67.1803 24.3957C66.0066 28.2051 57.682 25.6404 56.5086 29.4497C55.3348 33.2596 63.6595 35.8244 62.4855 39.6341C61.3118 43.4441 52.9872 40.8793 51.8135 44.6893" stroke="#197CEC" stroke-width="5.00859" stroke-miterlimit="10" stroke-linecap="round"/>
</g>
<mask id="mask16_860_60322" style="mask-type:luminance" maskUnits="userSpaceOnUse" x="60" y="52" width="36" height="14">
<path d="M60.953 58.7108C59.9024 59.6103 59.7796 61.1913 60.6788 62.2422C61.5786 63.2926 63.1593 63.4154 64.2102 62.5159C68.0614 59.2189 72.9668 57.6189 78.021 58.0115C83.0757 58.4034 87.6751 60.7406 90.9718 64.5921C91.4672 65.1707 92.169 65.4679 92.8756 65.4679C93.4518 65.4679 94.0307 65.2701 94.5027 64.866C95.5536 63.9667 95.6764 62.3858 94.7769 61.3349C90.61 56.4672 84.7969 53.5135 78.4082 53.0178C77.7744 52.9688 77.1427 52.9441 76.5135 52.9443C70.8029 52.9443 65.3378 54.9575 60.953 58.7108Z" fill="white"/>
</mask>
<g mask="url(#mask16_860_60322)">
<path d="M62.5967 60.6079C71.6108 52.8918 85.1733 53.9439 92.8894 62.958" stroke="#5647FF" stroke-width="5.00859" stroke-miterlimit="10" stroke-linecap="round"/>
</g>
</svg>
