<svg width="293" height="176" viewBox="0 0 293 176" fill="none" xmlns="http://www.w3.org/2000/svg">
<g clip-path="url(#clip0_860_60318)">
<mask id="mask0_860_60318" style="mask-type:luminance" maskUnits="userSpaceOnUse" x="0" y="-43" width="294" height="294">
<path d="M293.001 -42.707H0.000976562V250.293H293.001V-42.707Z" fill="white"/>
</mask>
<g mask="url(#mask0_860_60318)">
<mask id="mask1_860_60318" style="mask-type:luminance" maskUnits="userSpaceOnUse" x="92" y="75" width="78" height="79">
<path d="M93.2886 148.063C91.9767 151.478 95.3379 154.829 98.7489 153.507L169.864 123.321L120.915 75.6436L93.2886 148.063Z" fill="white"/>
</mask>
<g mask="url(#mask1_860_60318)">
<path d="M93.1656 147.94C91.8537 151.355 95.2149 154.706 98.6259 153.384L169.74 123.198L120.791 75.5205L93.1656 147.94Z" fill="#197CEC"/>
</g>
<mask id="mask2_860_60318" style="mask-type:luminance" maskUnits="userSpaceOnUse" x="120" y="72" width="52" height="53">
<path d="M122.086 73.5043C117.644 77.8756 124.893 92.447 138.278 106.05C151.663 119.654 166.115 127.138 170.557 122.767C175 118.395 167.751 103.824 154.366 90.2206C143.569 79.2476 132.079 72.2561 125.707 72.2568C124.18 72.2571 122.945 72.659 122.086 73.5043Z" fill="white"/>
</mask>
<g mask="url(#mask2_860_60318)">
<path d="M121.966 73.3832C117.523 77.7545 124.773 92.3259 138.157 105.929C151.542 119.533 165.995 127.017 170.437 122.645C174.88 118.274 167.631 103.703 154.246 90.0996C143.449 79.1265 131.959 72.135 125.587 72.1357C124.06 72.136 122.825 72.5379 121.966 73.3832Z" fill="#112C60" fill-opacity="0.76"/>
</g>
<mask id="mask3_860_60318" style="mask-type:luminance" maskUnits="userSpaceOnUse" x="114" y="84" width="47" height="47">
<path d="M115.318 90.3161L114.811 91.6446C114.811 91.6468 114.811 91.649 114.809 91.6531C113.872 96.5137 119.526 106.601 128.879 116.106C137.951 125.326 147.628 131.075 152.65 130.627L155.046 129.61L160.405 127.337C159.205 127.526 157.737 127.36 156.067 126.879C150.089 125.163 141.527 119.392 133.397 111.131C125.517 103.121 119.983 94.7413 118.176 88.7656C117.677 87.1214 117.463 85.6581 117.561 84.4365L115.318 90.3161Z" fill="white"/>
</mask>
<g mask="url(#mask3_860_60318)">
<path d="M115.194 90.1969L114.687 91.5254C114.687 91.5276 114.687 91.5298 114.685 91.534C113.748 96.3946 119.402 106.482 128.755 115.987C137.827 125.207 147.504 130.956 152.526 130.508L154.922 129.491L160.281 127.217C159.081 127.407 157.614 127.241 155.943 126.76C149.965 125.044 141.403 119.273 133.274 111.012C125.393 103.002 119.859 94.6224 118.052 88.6467C117.553 87.0025 117.339 85.5389 117.437 84.3174L115.194 90.1969Z" fill="#0D2147" fill-opacity="0.66"/>
</g>
<mask id="mask4_860_60318" style="mask-type:luminance" maskUnits="userSpaceOnUse" x="108" y="102" width="35" height="36">
<path d="M108.363 108.544L108.201 108.967C108.201 108.969 108.201 108.971 108.199 108.973C107.219 112.39 111.374 119.955 118.375 127.074C125.505 134.319 133.149 138.62 136.489 137.486C136.496 137.483 136.5 137.481 136.504 137.479L136.848 137.335L142.95 134.744C141.794 135.203 140.143 135.042 138.17 134.352C133.813 132.827 127.888 128.718 122.243 122.982C116.718 117.368 112.755 111.508 111.226 107.153C110.549 105.217 110.348 103.579 110.71 102.395L108.363 108.544Z" fill="white"/>
</mask>
<g mask="url(#mask4_860_60318)">
<path d="M108.24 108.424L108.079 108.846C108.079 108.849 108.079 108.851 108.077 108.853C107.097 112.27 111.252 119.835 118.253 126.954C125.383 134.199 133.027 138.5 136.367 137.366C136.374 137.363 136.378 137.361 136.382 137.359L136.726 137.215L142.828 134.624C141.672 135.083 140.021 134.922 138.048 134.232C133.691 132.707 127.765 128.598 122.121 122.862C116.596 117.248 112.633 111.388 111.104 107.033C110.427 105.097 110.226 103.459 110.588 102.274L108.24 108.424Z" fill="#0D2147" fill-opacity="0.66"/>
</g>
<mask id="mask5_860_60318" style="mask-type:luminance" maskUnits="userSpaceOnUse" x="101" y="119" width="26" height="26">
<path d="M102.209 124.682V124.684L101.843 125.642C101.549 128.055 104.258 132.807 108.67 137.291C113.335 142.031 118.328 144.873 120.597 144.233L121.041 144.046L126.483 141.735C125.288 142.005 123.515 141.528 121.446 140.45C118.726 139.035 115.493 136.581 112.383 133.419C109.341 130.327 106.976 127.128 105.591 124.42C104.498 122.291 104.012 120.466 104.284 119.242L102.209 124.682Z" fill="white"/>
</mask>
<g mask="url(#mask5_860_60318)">
<path d="M102.086 124.557V124.559L101.72 125.517C101.426 127.93 104.135 132.682 108.547 137.166C113.212 141.906 118.205 144.748 120.474 144.108L120.918 143.921L126.36 141.61C125.165 141.88 123.392 141.403 121.323 140.325C118.603 138.91 115.37 136.456 112.26 133.294C109.218 130.202 106.853 127.003 105.468 124.295C104.375 122.166 103.889 120.341 104.161 119.117L102.086 124.557Z" fill="#0D2147" fill-opacity="0.66"/>
</g>
<mask id="mask6_860_60318" style="mask-type:luminance" maskUnits="userSpaceOnUse" x="96" y="134" width="16" height="17">
<path d="M96.7655 138.945C96.7655 138.945 96.7655 138.947 96.7634 138.947L96.5565 139.493C96.3954 140.857 97.9219 143.535 100.409 146.061C102.935 148.629 105.633 150.21 106.979 150.012H106.981L107.495 149.792L111.887 147.928C110.716 148.158 108.669 147.253 106.43 145.56C105.435 144.814 104.403 143.91 103.392 142.882C102.434 141.908 101.585 140.915 100.875 139.96C99.2482 137.767 98.338 135.752 98.451 134.526L96.7655 138.945Z" fill="white"/>
</mask>
<g mask="url(#mask6_860_60318)">
<path d="M96.6464 138.82C96.6464 138.82 96.6464 138.822 96.6442 138.822L96.4374 139.369C96.2763 140.732 97.8028 143.411 100.29 145.937C102.816 148.504 105.514 150.085 106.86 149.887H106.862L107.376 149.667L111.768 147.803C110.597 148.034 108.55 147.128 106.311 145.436C105.316 144.689 104.283 143.785 103.273 142.757C102.315 141.784 101.466 140.79 100.756 139.835C99.1291 137.642 98.2188 135.627 98.3319 134.401L96.6464 138.82Z" fill="#0D2147" fill-opacity="0.66"/>
</g>
<mask id="mask7_860_60318" style="mask-type:luminance" maskUnits="userSpaceOnUse" x="194" y="105" width="7" height="7">
<path d="M194.45 108.544C194.45 110.145 195.748 111.443 197.349 111.443C198.95 111.443 200.248 110.145 200.248 108.544C200.248 106.943 198.95 105.646 197.349 105.646C195.748 105.646 194.45 106.943 194.45 108.544Z" fill="white"/>
</mask>
<g mask="url(#mask7_860_60318)">
<path d="M194.329 108.426C194.329 110.027 195.627 111.324 197.228 111.324C198.829 111.324 200.127 110.027 200.127 108.426C200.127 106.824 198.829 105.526 197.228 105.526C195.627 105.526 194.329 106.824 194.329 108.426Z" fill="#0C6FDF"/>
</g>
<mask id="mask8_860_60318" style="mask-type:luminance" maskUnits="userSpaceOnUse" x="190" y="84" width="9" height="10">
<path d="M190.363 88.955C190.363 91.2128 192.194 93.0431 194.451 93.0431C196.709 93.0431 198.539 91.2128 198.539 88.955C198.539 86.6972 196.709 84.8672 194.451 84.8672C192.194 84.8672 190.363 86.6972 190.363 88.955Z" fill="white"/>
</mask>
<g mask="url(#mask8_860_60318)">
<path d="M190.242 88.833C190.242 91.0908 192.072 92.9213 194.33 92.9213C196.588 92.9213 198.418 91.0908 198.418 88.833C198.418 86.5751 196.588 84.7451 194.33 84.7451C192.072 84.7451 190.242 86.5751 190.242 88.833Z" fill="#004AD9" fill-opacity="0.9"/>
</g>
<mask id="mask9_860_60318" style="mask-type:luminance" maskUnits="userSpaceOnUse" x="172" y="133" width="9" height="9">
<path d="M172.335 137.831C172.335 140.089 174.165 141.919 176.423 141.919C178.681 141.919 180.511 140.089 180.511 137.831C180.511 135.573 178.681 133.743 176.423 133.743C174.165 133.743 172.335 135.573 172.335 137.831Z" fill="white"/>
</mask>
<g mask="url(#mask9_860_60318)">
<path d="M172.213 137.709C172.213 139.967 174.043 141.797 176.301 141.797C178.559 141.797 180.389 139.967 180.389 137.709C180.389 135.451 178.559 133.621 176.301 133.621C174.043 133.621 172.213 135.451 172.213 137.709Z" fill="#0A3EA4"/>
</g>
<mask id="mask10_860_60318" style="mask-type:luminance" maskUnits="userSpaceOnUse" x="149" y="123" width="12" height="13">
<path d="M149.247 129.354C149.247 132.556 151.843 135.152 155.045 135.152C158.247 135.152 160.843 132.556 160.843 129.354C160.843 126.151 158.247 123.556 155.045 123.556C151.843 123.556 149.247 126.151 149.247 129.354Z" fill="white"/>
</mask>
<g mask="url(#mask10_860_60318)">
<path d="M149.124 129.233C149.124 132.435 151.72 135.031 154.922 135.031C158.124 135.031 160.719 132.435 160.719 129.233C160.719 126.03 158.124 123.435 154.922 123.435C151.72 123.435 149.124 126.03 149.124 129.233Z" fill="#78B5FA"/>
</g>
<mask id="mask11_860_60318" style="mask-type:luminance" maskUnits="userSpaceOnUse" x="169" y="79" width="13" height="13">
<path d="M169.986 85.5853C169.986 88.7873 172.582 91.3833 175.785 91.3833C178.987 91.3833 181.582 88.7873 181.582 85.5853C181.582 82.3831 178.987 79.7871 175.785 79.7871C172.582 79.7871 169.986 82.3831 169.986 85.5853Z" fill="white"/>
</mask>
<g mask="url(#mask11_860_60318)">
<path d="M169.864 85.4635C169.864 88.6655 172.46 91.2615 175.662 91.2615C178.864 91.2615 181.46 88.6655 181.46 85.4635C181.46 82.2613 178.864 79.665 175.662 79.665C172.46 79.665 169.864 82.2613 169.864 85.4635Z" fill="#071331"/>
</g>
<mask id="mask12_860_60318" style="mask-type:luminance" maskUnits="userSpaceOnUse" x="172" y="55" width="7" height="7">
<path d="M172.886 58.1832C172.886 59.7844 174.183 61.0822 175.785 61.0822C177.386 61.0822 178.684 59.7844 178.684 58.1832C178.684 56.5822 177.386 55.2842 175.785 55.2842C174.183 55.2842 172.886 56.5822 172.886 58.1832Z" fill="white"/>
</mask>
<g mask="url(#mask12_860_60318)">
<path d="M172.764 58.0611C172.764 59.6623 174.061 60.9601 175.663 60.9601C177.264 60.9601 178.562 59.6623 178.562 58.0611C178.562 56.4601 177.264 55.1621 175.663 55.1621C174.061 55.1621 172.764 56.4601 172.764 58.0611Z" fill="#0C6FDF"/>
</g>
<mask id="mask13_860_60318" style="mask-type:luminance" maskUnits="userSpaceOnUse" x="103" y="84" width="10" height="10">
<path d="M103.971 88.955C103.971 91.2128 105.801 93.0431 108.059 93.0431C110.317 93.0431 112.147 91.2128 112.147 88.955C112.147 86.6972 110.317 84.8672 108.059 84.8672C105.801 84.8672 103.971 86.6972 103.971 88.955Z" fill="white"/>
</mask>
<g mask="url(#mask13_860_60318)">
<path d="M103.848 88.833C103.848 91.0908 105.678 92.9213 107.936 92.9213C110.194 92.9213 112.024 91.0908 112.024 88.833C112.024 86.5751 110.194 84.7451 107.936 84.7451C105.678 84.7451 103.848 86.5751 103.848 88.833Z" fill="#F4F4F4"/>
</g>
<mask id="mask14_860_60318" style="mask-type:luminance" maskUnits="userSpaceOnUse" x="103" y="65" width="7" height="7">
<path d="M103.692 68.6693C103.692 70.2705 104.99 71.5682 106.591 71.5682C108.192 71.5682 109.49 70.2705 109.49 68.6693C109.49 67.0683 108.192 65.7705 106.591 65.7705C104.99 65.7705 103.692 67.0683 103.692 68.6693Z" fill="white"/>
</mask>
<g mask="url(#mask14_860_60318)">
<path d="M103.569 68.5501C103.569 70.1514 104.867 71.4489 106.468 71.4489C108.069 71.4489 109.367 70.1514 109.367 68.5501C109.367 66.9491 108.069 65.6514 106.468 65.6514C104.867 65.6514 103.569 66.9491 103.569 68.5501Z" fill="#071331"/>
</g>
<mask id="mask15_860_60318" style="mask-type:luminance" maskUnits="userSpaceOnUse" x="126" y="51" width="14" height="36">
<path d="M127.387 52.3836C126.518 53.4587 126.684 55.0358 127.759 55.9055C135.897 62.4875 137.162 74.4621 130.58 82.5992C129.71 83.6745 129.876 85.2514 130.952 86.1211C131.415 86.4961 131.972 86.6785 132.525 86.6785C133.255 86.6785 133.979 86.3609 134.474 85.749C142.793 75.4647 141.193 60.33 130.909 52.0113C130.446 51.6362 129.889 51.4541 129.336 51.4541C128.606 51.4541 127.882 51.7718 127.387 52.3836Z" fill="white"/>
</mask>
<g mask="url(#mask15_860_60318)">
<path d="M129.213 53.9033C138.438 61.3655 139.867 74.8936 132.405 84.1189" stroke="#0030D9" stroke-width="5.00859" stroke-miterlimit="10" stroke-linecap="round"/>
</g>
<mask id="mask16_860_60318" style="mask-type:luminance" maskUnits="userSpaceOnUse" x="141" y="57" width="26" height="42">
<path d="M161.471 59.477C161.139 59.8725 159.154 60.1326 158.2 60.2578C155.523 60.6085 151.856 61.0887 150.796 64.5303C149.736 67.9718 152.496 70.4325 154.512 72.2291C155.23 72.8693 156.725 74.2017 156.776 74.7147C156.445 75.1102 154.459 75.37 153.506 75.4953C150.828 75.8462 147.162 76.3264 146.102 79.768C145.042 83.2097 147.802 85.6702 149.817 87.467C150.535 88.1072 152.03 89.4401 152.082 89.9531C151.75 90.3487 149.765 90.6092 148.81 90.7342C146.133 91.0851 142.467 91.5658 141.407 95.0074C140.999 96.3293 141.739 97.7305 143.061 98.1378C143.307 98.2133 143.555 98.2494 143.799 98.2494C144.869 98.2494 145.859 97.5577 146.19 96.4814C146.522 96.0858 148.507 95.8256 149.461 95.7003C152.139 95.3494 155.805 94.8687 156.866 91.4271C157.926 87.9854 155.165 85.5249 153.15 83.7281C152.432 83.0876 150.937 81.7552 150.885 81.242C151.217 80.8464 153.202 80.5866 154.156 80.4616C156.834 80.1105 160.5 79.6302 161.56 76.1887C162.62 72.7472 159.86 70.2867 157.844 68.4902C157.126 67.8499 155.631 66.5173 155.58 66.0043C155.911 65.609 157.897 65.349 158.851 65.2239C161.528 64.8731 165.194 64.3926 166.254 60.951C166.662 59.6294 165.922 58.2278 164.6 57.8208C164.354 57.7451 164.106 57.709 163.862 57.709C162.792 57.709 161.803 58.401 161.471 59.477Z" fill="white"/>
</mask>
<g mask="url(#mask16_860_60318)">
<path d="M163.875 60.1582C162.701 63.9674 154.377 61.403 153.203 65.2122C152.029 69.0217 160.354 71.5862 159.18 75.3957C158.007 79.2051 149.682 76.6404 148.509 80.4497C147.335 84.2596 155.659 86.8244 154.486 90.6341C153.312 94.4441 144.987 91.8793 143.813 95.6893" stroke="#197CEC" stroke-width="5.00859" stroke-miterlimit="10" stroke-linecap="round"/>
</g>
<mask id="mask17_860_60318" style="mask-type:luminance" maskUnits="userSpaceOnUse" x="152" y="103" width="36" height="14">
<path d="M152.953 109.711C151.902 110.61 151.78 112.191 152.679 113.242C153.579 114.293 155.159 114.415 156.21 113.516C160.061 110.219 164.967 108.619 170.021 109.012C175.076 109.403 179.675 111.741 182.972 115.592C183.467 116.171 184.169 116.468 184.876 116.468C185.452 116.468 186.031 116.27 186.503 115.866C187.554 114.967 187.676 113.386 186.777 112.335C182.61 107.467 176.797 104.513 170.408 104.018C169.774 103.969 169.143 103.944 168.514 103.944C162.803 103.944 157.338 105.957 152.953 109.711Z" fill="white"/>
</mask>
<g mask="url(#mask17_860_60318)">
<path d="M154.597 111.608C163.611 103.892 177.173 104.944 184.889 113.958" stroke="#5647FF" stroke-width="5.00859" stroke-miterlimit="10" stroke-linecap="round"/>
</g>
</g>
</g>
<defs>
<clipPath id="clip0_860_60318">
<rect width="293" height="181.768" fill="white" transform="translate(0 -6.08301)"/>
</clipPath>
</defs>
</svg>
