<svg width="35" height="36" viewBox="0 0 35 36" fill="none" xmlns="http://www.w3.org/2000/svg">
<g filter="url(#filter0_d_1752_18877)">
<rect x="4" width="27" height="28" rx="13.5" fill="white"/>
<g clip-path="url(#clip0_1752_18877)">
<path d="M23.9413 9.19467C23.7547 9.19467 23.6053 9.08267 23.6053 8.97067V8.224C23.6053 8.112 23.456 8 23.2693 8H11.472C11.2853 8 11.0987 8.112 11.0987 8.224V8.93333C11.0987 9.04533 10.9493 9.15733 10.7627 9.15733H8.336C8.14933 9.19467 8 9.30667 8 9.41867V12.5173C8 12.6293 8.14933 12.7413 8.336 12.7413H13.8613C14.048 12.7413 14.1973 12.8533 14.1973 12.9653V13.6747C14.1973 13.7867 14.3467 13.8987 14.5333 13.8987H20.0587C20.2453 13.8987 20.3947 14.0107 20.3947 14.1227V16.0267C20.3947 16.1387 20.2453 16.2507 20.0587 16.2507H17.7067C17.52 16.2507 17.3707 16.1387 17.3707 16.0267V15.3173C17.3707 15.2053 17.2213 15.0933 17.0347 15.0933H14.6453C14.4587 15.0933 14.3093 14.9813 14.3093 14.8693V14.16C14.3093 14.048 14.16 13.936 13.9733 13.936H8.336C8.14933 13.936 8 14.048 8 14.16V16.064C8 16.176 8.14933 16.288 8.336 16.288H10.7253C10.912 16.288 11.0613 16.4 11.0613 16.512V17.2213C11.0613 17.3333 11.2107 17.4453 11.3973 17.4453H23.12C23.3067 17.4453 23.456 17.3333 23.456 17.2213V16.512C23.456 16.4 23.6053 16.288 23.792 16.288H26.2933C26.48 16.288 26.6667 16.176 26.6667 16.064V12.9653C26.6667 12.8533 26.48 12.7413 26.2933 12.7413H20.8053C20.6187 12.7413 20.4693 12.6293 20.4693 12.5173V11.808C20.4693 11.696 20.32 11.584 20.1333 11.584H14.5707C14.384 11.584 14.2347 11.472 14.2347 11.36V9.41867C14.2347 9.30667 14.384 9.19467 14.5707 9.19467H16.96C17.1467 9.19467 17.296 9.30667 17.296 9.41867V10.128C17.296 10.24 17.4453 10.352 17.632 10.352H20.0213C20.208 10.352 20.3573 10.464 20.3573 10.576V11.2853C20.3573 11.3973 20.5067 11.5093 20.6933 11.5093H26.2187C26.4053 11.5093 26.5547 11.3973 26.5547 11.2853V9.41867C26.5547 9.30667 26.4053 9.19467 26.2187 9.19467H23.9413ZM15.168 18.08H14.3467C13.936 18.08 13.5253 18.1547 13.5253 18.752V19.2747C13.5253 19.872 13.8987 19.9467 14.3467 19.9467H15.168C15.5787 19.9467 15.9893 19.872 15.9893 19.2747V18.752C15.9893 18.192 15.5787 18.08 15.168 18.08ZM15.3173 18.9387V19.1253C15.3173 19.3493 15.28 19.424 15.056 19.424H14.384C14.1973 19.424 14.1227 19.3867 14.1227 19.1253V18.9387C14.1227 18.752 14.16 18.64 14.384 18.64H14.9813C15.28 18.64 15.3173 18.752 15.3173 18.9387ZM17.7813 19.1627C17.7813 19.3493 17.744 19.424 17.5573 19.424H17.0347C16.848 19.424 16.8107 19.3493 16.8107 19.1627V18.1173H16.176V19.2747C16.176 19.7227 16.4373 19.9467 16.9227 19.9467H17.6693C18.192 19.9467 18.416 19.7227 18.416 19.2747V18.1173H17.7813V19.1627ZM20.3947 19.2373L19.4987 18.1173H18.6027V19.9467H19.2V18.8267L20.096 19.9467H20.992V18.1173H20.3573V19.2373H20.3947ZM22.8587 18.1173H21.216V19.9467H22.8587C23.4187 19.9467 23.6053 19.76 23.6053 19.312V18.7893C23.6053 18.304 23.3813 18.1173 22.8587 18.1173ZM21.8507 18.64H22.7093C22.896 18.64 22.9707 18.6773 22.9707 18.9013V19.1253C22.9707 19.312 22.9333 19.3867 22.7093 19.3867H21.8507V18.64ZM12.2933 18.752C11.9947 18.752 11.7707 18.752 11.7333 18.7147V18.64C11.7333 18.6027 11.7707 18.5653 11.8827 18.5653H12.48C12.6667 18.5653 12.6667 18.6027 12.6667 18.64V18.6773H13.3013V18.6027C13.3013 18.2667 13.1893 18.08 12.592 18.08H11.8453C11.1733 18.08 11.0987 18.3413 11.0987 18.6773C11.0987 19.1627 11.248 19.2373 12.032 19.2373C12.704 19.2373 12.704 19.2373 12.704 19.3493C12.704 19.424 12.6667 19.424 12.5547 19.424H11.92C11.808 19.424 11.7707 19.424 11.7707 19.3493V19.312H11.0987V19.424C11.0987 19.872 11.36 19.9467 11.808 19.9467H12.4427C13.152 19.9467 13.3387 19.872 13.3387 19.3493C13.3387 19.1253 13.3013 19.0133 13.2267 18.9013C13.0773 18.7893 12.816 18.752 12.2933 18.752Z" fill="black"/>
</g>
</g>
<defs>
<filter id="filter0_d_1752_18877" x="0" y="0" width="35" height="36" filterUnits="userSpaceOnUse" color-interpolation-filters="sRGB">
<feFlood flood-opacity="0" result="BackgroundImageFix"/>
<feColorMatrix in="SourceAlpha" type="matrix" values="0 0 0 0 0 0 0 0 0 0 0 0 0 0 0 0 0 0 127 0" result="hardAlpha"/>
<feOffset dy="4"/>
<feGaussianBlur stdDeviation="2"/>
<feComposite in2="hardAlpha" operator="out"/>
<feColorMatrix type="matrix" values="0 0 0 0 0 0 0 0 0 0 0 0 0 0 0 0 0 0 0.25 0"/>
<feBlend mode="normal" in2="BackgroundImageFix" result="effect1_dropShadow_1752_18877"/>
<feBlend mode="normal" in="SourceGraphic" in2="effect1_dropShadow_1752_18877" result="shape"/>
</filter>
<clipPath id="clip0_1752_18877">
<rect width="18.6667" height="11.9467" fill="white" transform="translate(8 8)"/>
</clipPath>
</defs>
</svg>
